<svg width="109" height="109" viewBox="0 0 109 109" fill="none" xmlns="http://www.w3.org/2000/svg">
<path d="M78.9976 67.7228C78.531 67.7225 78.0697 67.6242 77.6436 67.4343C77.5444 67.3903 77.4498 67.3366 77.3613 67.2739L68.7465 61.2099C68.3096 60.9023 67.953 60.4943 67.7069 60.0201C67.4607 59.5459 67.3321 59.0194 67.332 58.4851V50.2151C67.3321 49.6808 67.4607 49.1544 67.7069 48.6802C67.953 48.206 68.3096 47.7979 68.7465 47.4904L77.3613 41.4264C77.4498 41.3637 77.5444 41.31 77.6435 41.266C78.151 41.0403 78.7068 40.9451 79.2604 40.9889C79.814 41.0327 80.3479 41.2141 80.8136 41.5167C81.2793 41.8193 81.662 42.2334 81.9269 42.7215C82.1918 43.2096 82.3306 43.7561 82.3306 44.3115V64.3888C82.3306 65.2727 81.9794 66.1205 81.3544 66.7456C80.7293 67.3706 79.8816 67.7218 78.9976 67.7218L78.9976 67.7228Z" fill="#00A94D"/>
<path d="M59.7192 69.3487H35.6921C30.7901 69.3447 26.8175 66.176 26.8125 62.266V46.4342C26.8175 42.5242 30.7901 39.3556 35.6921 39.3516H59.7819C64.649 39.3562 68.593 42.5021 68.5988 46.3842V62.266C68.5938 66.176 64.6212 69.3447 59.7192 69.3487Z" fill="#00A94D"/>
<path d="M54.6758 0V13.6167C62.7343 13.6167 70.6118 16.0125 77.3121 20.5012C84.0125 24.9899 89.2348 31.3698 92.3187 38.8342C95.4025 46.2986 96.2094 54.5122 94.6373 62.4364C93.0652 70.3606 89.1846 77.6394 83.4864 83.3524L93.09 92.9808C100.688 85.3635 105.862 75.6584 107.958 65.0928C110.054 54.5273 108.978 43.5758 104.866 33.6233C100.755 23.6708 93.7915 15.1642 84.8576 9.1793C75.9238 3.1944 65.4204 1.41217e-06 54.6758 0Z" fill="#E6E6E6"/>
<path d="M92.9796 93.1464L83.362 83.5781C76.3859 90.52 67.1172 94.7111 57.273 95.3751C47.4289 96.0392 37.6764 93.1311 29.8222 87.1896L21.5898 97.9662C32.0638 105.886 45.0676 109.762 58.1933 108.876C71.3189 107.989 83.6771 102.401 92.9796 93.1464Z" fill="#575A89"/>
<path d="M13.6685 54.481C13.6685 49.1151 14.7292 43.8017 16.7899 38.8443C18.8506 33.8868 21.8711 29.3823 25.6788 25.5881C29.4865 21.7938 34.0069 18.784 38.982 16.7306C43.957 14.6771 49.2892 13.6202 54.6741 13.6202V2.80062e-09C43.2287 -0.000115605 32.0719 3.57897 22.7762 10.2328C13.4806 16.8866 6.51485 26.2796 2.86095 37.0878C-0.792938 47.896 -0.950748 59.5743 2.40976 70.4766C5.77027 81.3789 12.4796 90.9554 21.5921 97.8562L29.8652 87.0091C24.8279 83.2018 20.7441 78.2836 17.9341 72.64C15.124 66.9965 13.664 60.781 13.6685 54.481Z" fill="#00A94D"/>
</svg>
